<?xml version="1.0" standalone="no"?>
<!DOCTYPE svg PUBLIC "-//W3C//DTD SVG 20010904//EN"
 "http://www.w3.org/TR/2001/REC-SVG-20010904/DTD/svg10.dtd">
<svg version="1.0" xmlns="http://www.w3.org/2000/svg"
 width="500.000000pt" height="500.000000pt" viewBox="0 0 500.000000 500.000000"
 preserveAspectRatio="xMidYMid meet">

<g transform="translate(0.000000,500.000000) scale(0.100000,-0.100000)"
fill="#000000" stroke="none">
<path d="M107 2653 c-4 -3 -7 -55 -7 -114 0 -104 1 -109 23 -114 12 -3 202 -4
422 -3 l400 3 3 118 3 117 -419 0 c-230 0 -422 -3 -425 -7z"/>
<path d="M1536 2651 c-3 -5 -31 -74 -62 -153 -30 -78 -71 -181 -89 -228 -18
-47 -68 -175 -111 -285 -42 -110 -121 -315 -175 -455 -55 -140 -99 -261 -99
-267 0 -10 33 -13 134 -13 l133 0 41 113 c22 61 85 239 139 395 54 155 100
282 103 282 3 0 16 -30 28 -67 13 -38 49 -138 79 -223 30 -85 79 -223 108
-307 29 -83 58 -161 65 -172 10 -20 19 -21 140 -21 117 0 130 2 129 18 -1 29
-533 1385 -546 1389 -6 2 -14 0 -17 -6z"/>
<path d="M2480 2646 c-251 -73 -379 -320 -290 -558 51 -137 198 -234 385 -253
112 -11 171 -52 197 -136 24 -81 -34 -167 -127 -190 l-45 -11 0 -124 c0 -141
-7 -132 91 -114 180 34 314 167 338 334 26 181 -51 347 -196 423 -77 41 -112
51 -215 62 -99 11 -137 27 -169 72 -76 107 12 259 150 259 89 -1 155 -48 170
-123 l7 -32 127 -3 127 -3 0 35 c0 56 -37 158 -77 211 -82 107 -182 155 -333
161 -59 2 -112 -1 -140 -10z"/>
<path d="M3087 2653 c-10 -9 -9 -1305 1 -1301 10 4 96 99 247 271 66 75 123
137 126 137 3 0 70 -80 149 -177 79 -98 173 -213 208 -255 l64 -78 164 0 c125
0 164 3 164 13 0 6 -128 163 -285 347 -244 287 -282 337 -271 350 24 27 400
492 445 549 24 31 59 73 78 94 18 20 33 42 33 47 0 6 -61 10 -162 10 l-163 -1
-215 -265 c-118 -146 -237 -293 -265 -327 l-50 -62 -3 328 -2 327 -128 0 c-71
0 -132 -3 -135 -7z"/>
<path d="M400 1700 l0 -451 128 3 127 3 3 448 2 447 -130 0 -130 0 0 -450z"/>
<path d="M2361 889 c-18 -4 -45 -19 -60 -33 -37 -38 -37 -114 0 -152 27 -27
89 -41 132 -30 32 8 74 51 80 82 16 87 -59 152 -152 133z m94 -54 c24 -24 31
-57 19 -90 -8 -20 -56 -45 -88 -45 -38 0 -79 41 -79 78 0 74 95 111 148 57z"/>
<path d="M2911 889 c-18 -4 -45 -19 -60 -33 -37 -38 -37 -114 0 -152 27 -27
89 -41 132 -30 32 8 74 51 80 82 16 87 -59 152 -152 133z m94 -54 c24 -24 31
-57 19 -90 -8 -20 -56 -45 -88 -45 -38 0 -79 41 -79 78 0 74 95 111 148 57z"/>
<path d="M3968 893 c-26 -4 -68 -44 -68 -65 0 -21 50 -56 88 -63 50 -8 70 -28
52 -50 -18 -22 -73 -18 -104 6 -24 19 -27 19 -33 3 -10 -28 31 -54 87 -54 59
0 93 24 93 65 0 34 -21 51 -73 60 -49 8 -75 27 -67 49 7 19 76 23 94 5 7 -7
20 -9 29 -5 17 6 16 8 -2 25 -22 21 -56 29 -96 24z"/>
<path d="M900 875 c0 -11 11 -15 40 -15 l40 0 0 -95 c0 -78 3 -95 15 -95 12 0
15 17 15 95 l0 95 40 0 c29 0 40 4 40 15 0 12 -17 15 -95 15 -78 0 -95 -3 -95
-15z"/>
<path d="M1160 780 l0 -110 85 0 c69 0 85 3 85 15 0 12 -14 15 -65 15 l-65 0
0 35 0 35 55 0 c42 0 55 3 55 15 0 12 -13 15 -55 15 -54 0 -55 0 -55 30 l0 30
65 0 c51 0 65 3 65 15 0 12 -16 15 -85 15 l-85 0 0 -110z"/>
<path d="M1452 877 c-35 -20 -54 -55 -54 -97 1 -50 15 -76 52 -95 50 -26 150
-13 150 20 0 21 -12 25 -34 10 -26 -19 -59 -19 -95 0 -48 24 -56 81 -16 120
27 28 63 32 104 10 29 -14 41 -11 41 10 0 31 -104 46 -148 22z"/>
<path d="M1680 780 c0 -91 3 -110 15 -110 11 0 15 12 15 45 l0 45 70 0 70 0 0
-45 c0 -33 4 -45 15 -45 12 0 15 19 15 110 0 91 -3 110 -15 110 -11 0 -15 -12
-15 -45 l0 -45 -70 0 -70 0 0 45 c0 33 -4 45 -15 45 -12 0 -15 -19 -15 -110z"/>
<path d="M1980 780 c0 -91 3 -110 15 -110 12 0 15 16 15 83 l0 82 78 -83 c42
-45 83 -83 90 -82 9 0 12 29 12 110 0 90 -3 110 -15 110 -11 0 -15 -18 -17
-82 l-3 -82 -70 81 c-97 113 -105 111 -105 -27z"/>
<path d="M2590 780 l0 -110 80 0 c64 0 80 3 80 15 0 12 -13 15 -60 15 l-60 0
0 95 c0 88 -1 95 -20 95 -19 0 -20 -7 -20 -110z"/>
<path d="M3178 873 c-48 -30 -65 -97 -38 -148 39 -73 185 -73 218 0 22 49 17
55 -48 55 -47 0 -60 -3 -60 -15 0 -11 11 -15 40 -15 57 0 49 -30 -13 -45 -103
-26 -162 94 -70 143 30 16 74 15 100 -3 18 -13 22 -13 33 0 9 11 6 17 -19 29
-39 21 -109 20 -143 -1z"/>
<path d="M3440 875 c0 -9 9 -15 25 -15 26 0 26 0 23 -77 -3 -72 -5 -78 -25
-81 -13 -2 -23 -10 -23 -18 0 -11 15 -14 65 -14 51 0 65 3 65 15 0 9 -9 15
-25 15 -25 0 -25 1 -25 80 0 79 0 80 25 80 16 0 25 6 25 15 0 12 -14 15 -65
15 -51 0 -65 -3 -65 -15z"/>
<path d="M3660 780 l0 -110 80 0 c63 0 80 3 80 15 0 10 -16 15 -62 17 -63 3
-63 3 -66 36 l-3 32 60 0 c48 0 61 3 61 15 0 12 -13 15 -60 15 l-60 0 0 30 0
30 65 0 c51 0 65 3 65 15 0 12 -16 15 -80 15 l-80 0 0 -110z"/>
</g>
</svg>
